<svg width="45" height="45" viewBox="0 0 45 45" fill="none" xmlns="http://www.w3.org/2000/svg">
<path fill-rule="evenodd" clip-rule="evenodd" d="M41.2144 1.85346C37.5244 -0.821228 32.6362 -0.295291 29.9925 2.93065C35.5273 4.79364 40.3584 8.30756 43.8356 12.9994C45.9844 9.41346 44.9016 4.5394 41.2144 1.85346V1.85346Z" fill="#B6B9CA"/>
<path fill-rule="evenodd" clip-rule="evenodd" d="M10.2487 6.82557C12.5944 5.13607 15.1834 3.81313 17.9269 2.90214C15.2803 -0.292863 10.3894 -0.810362 6.70218 1.83901C3.01499 4.49964 1.92937 9.32589 4.08093 12.8781C5.81898 10.5603 7.89857 8.51958 10.2487 6.82557V6.82557Z" fill="#B6B9CA"/>
<path fill-rule="evenodd" clip-rule="evenodd" d="M41.9737 24.2803C41.9737 23.7235 41.94 23.175 41.895 22.6322C41.13 13.801 34.3069 6.75284 25.6809 5.85284C25.2984 5.80784 24.9131 5.80502 24.5222 5.79096C24.2916 5.77971 24.0609 5.75159 23.8247 5.75159H23.8134C13.7784 5.75159 5.64749 14.0457 5.64749 24.2803C5.64749 24.3619 5.65874 24.4463 5.66155 24.5278C5.68728 26.997 6.20494 29.4362 7.18428 31.703C8.16362 33.9698 9.58499 36.0186 11.3653 37.7297C10.777 38.0354 10.284 38.497 9.9403 39.0639C9.59656 39.6309 9.41527 40.2814 9.41624 40.9444C9.41624 42.9385 11.0025 44.5556 12.96 44.5556C14.8331 44.5556 16.3462 43.0735 16.4756 41.1975C18.4134 42.0722 20.5256 42.6235 22.7503 42.7556C23.1047 42.7781 23.4562 42.8119 23.8134 42.8119C24.2212 42.8119 24.615 42.7753 25.0228 42.75C27.2217 42.5987 29.3733 42.0398 31.3678 41.1019C31.4494 43.0257 32.9878 44.5585 34.8919 44.5585C36.8494 44.5585 38.4328 42.9413 38.4328 40.9472C38.4328 39.4763 37.575 38.2191 36.3431 37.6538C38.1294 35.9153 39.5483 33.8357 40.5155 31.5384C41.4828 29.2411 41.9786 26.7729 41.9737 24.2803V24.2803ZM23.9822 37.4456C16.7737 37.4456 10.9125 31.4944 10.9125 24.1819C10.9125 16.8694 16.7737 10.9238 23.9822 10.9238C31.1878 10.9238 37.0519 16.8694 37.0519 24.1819C37.0519 31.4944 31.1878 37.4456 23.9822 37.4456Z" fill="#B6B9CA"/>
<path fill-rule="evenodd" clip-rule="evenodd" d="M22.5 14.0625H25.3125V25.3125H22.5V14.0625Z" fill="#B6B9CA"/>
<path fill-rule="evenodd" clip-rule="evenodd" d="M22.5 22.5H30.9375V25.3125H22.5V22.5Z" fill="#B6B9CA"/>
</svg>
