<svg width="41" height="41" viewBox="0 0 41 41" fill="none" xmlns="http://www.w3.org/2000/svg">
<path d="M0.640625 20.5C0.640625 31.4707 9.5293 40.3594 20.5 40.3594C31.4707 40.3594 40.3594 31.4707 40.3594 20.5C40.3594 9.5293 31.4707 0.640625 20.5 0.640625C9.5293 0.640625 0.640625 9.5293 0.640625 20.5ZM24.0234 11.2109V20.5H29.701C30.5578 20.5 30.9902 21.541 30.3816 22.1416L21.1807 31.2945C20.8043 31.6709 20.2037 31.6709 19.8273 31.2945L10.6184 22.1416C10.0098 21.533 10.4422 20.5 11.299 20.5H16.9766V11.2109C16.9766 10.6824 17.409 10.25 17.9375 10.25H23.0625C23.591 10.25 24.0234 10.6824 24.0234 11.2109Z" fill="#666C8B"/>
</svg>
